<svg xmlns="http://www.w3.org/2000/svg" width="526" height="114" viewBox="0 0 526 114" xml:space="preserve" tabindex="-1" xmlns:xlink="http://www.w3.org/1999/xlink" focusable="false" class="brand-logo-svg" version="1.1"><g transform="translate(13.000000, 12.000000)" tabindex="-1" focusable="false" fill="#FFFFFF" class=""><path d="M179.106,88.578 C160.994,88.578 144.183,83.144 132.96,73.074 C124.479,65.464 120.405,55.124 120.405,44.486 C120.405,33.973 124.655,23.565 132.96,15.996 C143.377,6.498 161.782,0.549 179.106,0.549 C198.278,0.549 213.624,5.378 225.355,16.021 C233.702,23.597 237.739,33.959 237.739,44.486 C237.739,54.691 233.454,65.558 225.355,73.074 C214.433,83.21 197.268,88.578 179.106,88.578 L179.106,76.966 C188.722,76.966 197.638,73.646 203.864,67.453 C210.051,61.298 212.933,53.73 212.933,44.486 C212.933,35.625 209.823,27.346 203.864,21.473 C197.719,15.418 188.591,12.013 179.106,12.013 C169.595,12.013 160.456,15.385 154.309,21.473 C148.383,27.342 145.267,35.65 145.267,44.486 C145.267,53.292 148.415,61.589 154.309,67.453 C160.46,73.574 169.566,76.966 179.106,76.966 L179.106,88.578" class=""></path><path d="M46.724,0.591 C37.036,0.591 26.026,2.404 16.677,6.58 C8.046,10.433 0.979,16.66 0.979,26.986 C0.974,36.285 6.885,41.73 6.724,41.582 C9.239,43.896 13.286,47.837 23.866,50.154 C28.596,51.187 38.706,52.773 48.776,53.829 C58.767,54.882 68.605,55.882 72.608,56.898 C75.791,57.708 81.142,58.812 81.142,64.808 C81.142,70.783 75.509,72.607 74.529,72.999 C73.55,73.39 66.792,76.488 54.647,76.488 C45.679,76.488 34.899,73.79 30.968,72.386 C26.44,70.773 21.687,68.64 17.255,63.228 C16.152,61.882 14.414,58.193 14.414,54.537 L3.419,54.537 L3.419,85.341 L15.64,85.341 C15.64,85.341 15.64,81.962 15.64,81.177 C15.64,80.704 16.23,78.753 18.282,79.683 C20.835,80.843 28.326,83.826 36.159,85.462 C42.582,86.802 46.724,87.765 54.708,87.765 C67.735,87.765 74.735,85.646 79.573,84.263 C84.132,82.96 89.762,80.615 94.34,76.966 C96.815,74.994 102.249,69.935 102.249,60.755 C102.249,51.947 97.522,46.478 95.858,44.814 C93.593,42.548 90.823,40.787 87.938,39.433 C85.427,38.252 81.46,36.832 78.216,36.037 C71.917,34.49 57.677,32.584 50.864,31.872 C43.725,31.125 31.335,30.098 26.388,28.566 C24.887,28.101 21.833,26.644 21.833,23.097 C21.833,20.571 23.229,18.43 25.993,16.699 C30.38,13.952 39.241,12.24 48.481,12.24 C59.401,12.202 68.651,14.7 74.535,17.328 C76.538,18.221 78.876,19.507 80.737,21.025 C82.833,22.736 85.784,26.289 86.846,31.248 L96.716,31.248 L96.716,4.435 L85.696,4.435 L85.696,7.549 C85.696,8.558 84.658,9.865 82.695,8.782 C77.762,6.198 63.816,0.615 46.724,0.591" class=""></path><path d="M288.223,5.464 L341.98,53.976 L341.43,21.314 C341.373,17.03 340.584,15.242 335.953,15.242 C329.762,15.242 325.844,15.242 325.844,15.242 L325.844,5.472 L371.811,5.472 L371.811,15.242 C371.811,15.242 368.141,15.242 361.947,15.242 C357.225,15.242 356.928,16.755 356.867,21.314 L357.701,83.728 L341.959,83.728 L280.047,28.467 L280.057,67.683 C280.113,71.949 280.311,73.954 284.703,73.954 C290.889,73.954 295.744,73.954 295.744,73.954 L295.744,83.724 L250.602,83.724 L250.602,73.954 C250.602,73.954 254.967,73.954 261.154,73.954 C265.096,73.954 264.939,70.197 264.939,67.462 L264.939,21.684 C264.939,18.73 264.523,15.248 258.336,15.248 L249.775,15.248 L249.775,5.464 L288.223,5.464" class=""></path><path d="M424.332,73.937 C424.762,73.937 426.68,73.88 427.051,73.767 C428.113,73.437 428.834,72.679 429.168,71.89 C429.309,71.56 429.379,70.091 429.379,69.777 C429.379,69.777 429.385,54.849 429.385,54.333 C429.385,53.962 429.357,53.8 428.729,52.976 C428.035,52.07 400.572,20.947 399.314,19.578 C397.754,17.874 395.014,15.244 390.846,15.244 C387.533,15.244 381.297,15.244 381.297,15.244 L381.297,5.468 L435.197,5.468 L435.197,15.23 C435.197,15.23 429.953,15.23 428.699,15.23 C427.199,15.23 426.201,16.656 427.482,18.24 C427.482,18.24 445.619,39.934 445.791,40.164 C445.961,40.392 446.105,40.449 446.334,40.235 C446.561,40.02 464.924,18.441 465.068,18.269 C465.941,17.224 465.354,15.244 463.469,15.244 C462.211,15.244 456.799,15.244 456.799,15.244 L456.799,5.468 L500.979,5.468 L500.979,15.244 C500.979,15.244 494.422,15.244 491.109,15.244 C487.527,15.244 486.07,15.904 483.377,18.951 C482.145,20.344 454.389,52.027 453.633,52.886 C453.236,53.335 453.273,53.962 453.273,54.333 C453.273,54.929 453.273,68.341 453.273,69.771 C453.273,70.083 453.344,71.552 453.484,71.882 C453.816,72.675 454.539,73.431 455.602,73.759 C455.973,73.874 457.865,73.931 458.295,73.931 C460.234,73.931 468.391,73.931 468.391,73.931 L468.391,83.704 L414.766,83.704 L414.766,73.931 L424.332,73.937"></path></g></svg>